<?xml version="1.0" encoding="utf-8"?>
<!-- Generator: Adobe Illustrator 24.1.1, SVG Export Plug-In . SVG Version: 6.00 Build 0)  -->
<svg version="1.1" id="Layer_1" xmlns="http://www.w3.org/2000/svg" xmlns:xlink="http://www.w3.org/1999/xlink" x="0px" y="0px"
	 viewBox="0 0 512 512" style="enable-background:new 0 0 512 512;" xml:space="preserve">
<style type="text/css">
	.st0{fill:#444444;}
</style>
<g>
	<path class="st0" d="M500.5,310.1c-5.5-6.3-14.8-4.6-22-3.2c-17.3,3.1-36.2,6.7-53-0.5c30-47.3,53.6-99,66.8-153.6
		c4.8-20.7,8.5-42,7.8-63.3c-0.5-11.9-2.2-24.7-9.5-34.6c-18.1-23.8-44.3-41.2-73.2-49c-36.1-9.8-74.8-6.9-110.3,4.1
		c-2.9,0.6-5.8-0.7-8.7-1.1c-32.2-6.5-67.7-4-95.6,14.7C169.3,11.6,133.3,4.3,97.6,8C71,10.8,44.4,23.1,29.1,45.7
		C9.9,73.9,7.3,109.9,10.4,143c6.2,43.9,16.9,87.1,30.5,129.2c9,26.3,18.8,52.7,34.8,75.7c8.1,11.3,18.9,22.6,33.4,24.4
		c12.9,1.6,24.5-6.4,32.4-15.9c13.7-16.3,27.7-32.4,42.3-47.9c9.5,4.7,19.9,7.3,30.4,8.1c-5.7,6.8-10.4,15.6-19.5,18.3
		c-12.3,4.7-26.6,4.1-37.4,12.3c-6.2,4.5-6.5,14.2-0.9,19.3c10.1,9.8,25.1,11.9,38.5,13.1c19.1,1.5,38.4-5,52.9-17.5
		c-0.1,30.4,0,60.8,3.5,91c1.7,17.7,9.3,35.3,22.8,47.2c12.7,11.1,30.7,13.4,46.8,10.6c15.8-3,32-7.7,44.4-18.5
		c13.1-11.6,18.7-29,21.3-45.8c4.7-30,8.3-60.2,11.7-90.3c33.8,5.7,71.9-0.8,97.2-25.4C500.7,325.8,505.8,317,500.5,310.1z
		 M425.6,24.6c20.3,7.7,38.3,21.1,51.8,38c6.4,8.1,7.3,18.9,7.7,28.9c0.3,23.7-4.5,47-10.6,69.8c-11.6,42.1-29.3,82.5-51.5,120.1
		c-2.2,3.7-4.6,7.3-7.2,10.7l-0.8-4.2c2.8-7.2,6.8-14.1,8.4-21.8c5.5-21.7,0.9-44-1.1-65.8c-2.1-20.6,4.9-40.7,4.8-61.2
		c0.8-10.1-3.2-19.6-7.1-28.6c-14-31.3-36.3-59.1-64.8-78.3c-7-4.8-14.7-8.1-21.7-12.9C363.7,12.7,396.3,13.5,425.6,24.6L425.6,24.6
		z M407.1,200.3c1.8,24.4,8.9,50.5-2.6,73.7c-15.4-30.7-35.3-59.9-42.3-94.1c-2-10.9-2.5-24.6,7.2-32.2c12.2-8.7,28.2-6.7,42.4-5.9
		C411.1,161.4,405.1,180.6,407.1,200.3L407.1,200.3z M131.6,344.7c-5.5,6.5-13,14.3-22.4,12.3c-11-3.2-18-13.2-24.2-22.3
		c-16.6-26.5-26.6-56.5-35.8-86.3c-10.3-35.2-18.9-71-23.9-107.4c-2.5-27.7-0.9-57.4,13.2-82c10.6-18.7,30.4-30.6,51.2-34.5
		c33.3-6.4,67.4,0.4,99.3,10.1C175,50.2,164,68.5,157.6,88.4c-8.7,26.7-12.7,55-10.6,83c1.2,19.7,0.7,39.6-2.1,59.1
		c-3.5,25.6,6.8,51.8,25.8,69.1C157.8,314.8,144.1,329.2,131.6,344.7L131.6,344.7z M160.7,253.1c-3.3-14.5,1-29,1.5-43.5
		c1.1-16.4,0-32.8-0.4-49.3c15.3-9.9,33.3-17.7,51.9-16.6c9.6,0.4,18.5,7.2,20.8,16.7c8.4,33.6,11.1,71-5.1,102.9
		c-5.6,12.3-10.2,25-14.2,37.9C188.3,301.5,165.5,278.7,160.7,253.1L160.7,253.1z M244.4,343.1c-16.9,22.9-50.7,27.2-75.1,14.8
		c12-5.6,26.1-5.1,37.8-12c11.2-6.1,15.7-19.4,26.2-26.2C244.8,318,253.1,335.1,244.4,343.1L244.4,343.1z M389.3,316.4
		c-6.4,10.3-4.2,22.9-5.7,34.4c-3.7,32.2-7.3,64.4-12.5,96.3c-2.5,15.3-9,31.6-23.4,39.2c-14.8,7.5-32,12.3-48.7,9.7
		c-15.8-2.8-25.8-17.5-30.3-31.9c-3.3-12-3.6-24.6-4.5-37c-1.6-29.9-1.6-59.9-0.8-89.9c0.7-11.7-5.3-23.9-15.8-29.6
		c-5.1-2.8-11-3.2-16.6-3.7c4.4-22,17.8-41,22.4-63c6-27.2,2.7-55.5-3.4-82.4c-3-13.4-13.2-25.3-26.8-28.5
		c-20.9-5.3-42,2.9-60.7,11.6c2.4-30.4,10.5-61.5,29.1-86.1C205.2,37.3,226.4,25,249,22.1c37.4-4.8,76.6,5.5,106.3,28.9
		c24.5,19.4,43.9,45.7,54.4,75.2c-17.4-0.6-37.1-1.3-51.1,10.7c-12.7,10.7-14.4,29.1-11.5,44.5c6.6,36.6,28.3,67.7,44.2,100.6
		c4.2,7.7,9.9,14.5,15.3,21.4C400.2,306.7,393,309.8,389.3,316.4L389.3,316.4z M434,342.3c-11.5,1.4-23.4,1.8-34.5-2
		c0-6.3-0.3-13.7,4.7-18.3c4-2.9,9.6-5.6,14.2-2.4c19.6,10.3,42.3,5.3,63.2,2.8C469,334.6,451.3,340.4,434,342.3z M373.9,152.3
		c-4.1,3.4,0.3,8.4,3.8,9.9c8.5,5,20.1-2,20.4-11.7C390.4,146.9,380.8,147.3,373.9,152.3L373.9,152.3z M223.6,167.7
		c3.6-2,7.4-7.7,3.2-11.1c-6-4.8-14.6-5.8-21.9-3.8c-2.3,0.8-4.8,2.4-4.3,5.3C202.3,167.9,215.3,173.8,223.6,167.7L223.6,167.7z"/>
</g>
</svg>
